<svg xmlns="http://www.w3.org/2000/svg" width="250.00" height="250.00" viewBox="0 0 353.206 361.426">
  <g id="Group_9824" data-name="Group 9824" transform="translate(-2017.144 -723.447)">
    <g id="Group_9787" data-name="Group 9787" transform="translate(2147.08 863.743)">
      <path id="Path_3733" data-name="Path 3733" d="M2070.308,781.436c-4.157,4-5.739,10.209-1.773,15.006a11.637,11.637,0,0,0,15.623,1.874c11.257-8.69-.479-24.723-12.628-21.4-2.246.617-1.688,3.821.535,3.948,3.554.2,7.356.336,10.193,2.826a7.391,7.391,0,0,1,.614,10.272c-6.623,8.142-18.124-3.848-11.167-11.127a.988.988,0,0,0-1.4-1.395Z" transform="translate(-2066.248 -776.466)" fill="#8aa9fc"/>
    </g>
    <g id="Group_9788" data-name="Group 9788" transform="translate(2267.058 879.595)">
      <path id="Path_3734" data-name="Path 3734" d="M2111.625,785.33c1.524,5.66,3.2,11.257,4.948,16.854a1.765,1.765,0,0,0,2.85.984c4.551-3.091,9.1-6.129,13.408-9.553a1.621,1.621,0,0,0-.169-2.545c-5.046-3.464-11.863-8.579-18.267-8.613-1.63-.01-2.765,2.283-1.114,3.236,2.583,1.49,5.678,2.021,8.441,3.17a46.118,46.118,0,0,1,9.153,4.885q.092-1.393.188-2.787c-4.816,2.967-9.354,6.29-13.932,9.6q1.345.274,2.7.542c-1.953-5.528-3.959-11.019-6.126-16.467a1.112,1.112,0,0,0-2.083.69Z" transform="translate(-2111.588 -782.456)" fill="#e3707f"/>
    </g>
    <g id="Group_9789" data-name="Group 9789" transform="translate(2297.27 897.332)">
      <path id="Path_3735" data-name="Path 3735" d="M2124.772,804.279a131.638,131.638,0,0,0,19.774-11.336c2.241-1.6.037-4.739-2.323-3.5a129.39,129.39,0,0,0-18.677,12.315c-1.164.9-.307,3.255,1.226,2.522Z" transform="translate(-2123.005 -789.159)" fill="#edc483"/>
    </g>
    <g id="Group_9790" data-name="Group 9790" transform="translate(2039.915 909.724)">
      <path id="Path_3736" data-name="Path 3736" d="M2035.733,817.237a131.965,131.965,0,0,0-5.938-22.008c-.984-2.575-4.572-1.238-3.979,1.358a129.508,129.508,0,0,0,7.166,21.193c.574,1.357,3.072,1.125,2.752-.542Z" transform="translate(-2025.749 -793.842)" fill="#e8947e"/>
    </g>
    <g id="Group_9791" data-name="Group 9791" transform="translate(2063.538 866.377)">
      <path id="Path_3737" data-name="Path 3737" d="M2042.322,779.023c-.125-.114-.254-.225-.381-.339a4.28,4.28,0,0,0-6.052,6.054c.114.124.225.251.339.381a4.336,4.336,0,0,0,6.094,0c1.5-1.635,1.8-4.5,0-6.1Z" transform="translate(-2034.677 -777.461)" fill="#251a51"/>
    </g>
    <g id="Group_9807" data-name="Group 9807" transform="translate(2029.805 789.176)">
      <g id="Group_9796" data-name="Group 9796" transform="translate(46.722 102.789)">
        <path id="Path_3738" data-name="Path 3738" d="M2167.675,950.987s-71.084,16.536-99.639-12.019l10.217-68.2c3.107-19.6,1.255-57.324,16.269-70.705a25.972,25.972,0,0,1,5.7-3.879c10.534-5.086,29.271-7.833,47.26-7.9,21.852-.085,44.344,16.44,50.084,37.528l-23.651,55.328Z" transform="translate(-1992.751 -785.24)" fill="#e3707f"/>
        <g id="Group_9792" data-name="Group 9792" transform="translate(99.069 40.568)">
          <path id="Path_3739" data-name="Path 3739" d="M2145.851,810.959s31.844,61.338,16.033,64.6c-52.016,10.746-82.208,19.558-82.208,19.558l-2.651,20.2c.775,3.051,105.238.41,117.608-13.622,8.738-9.91,20.349-32.81-4.355-82.375l-7.507-16.861Z" transform="translate(-2077.024 -802.462)" fill="#f6aea6"/>
        </g>
        <path id="Path_3740" data-name="Path 3740" d="M2147.68,804.6l-79.311,30.709-2.484-41.611-16.98-6.568s-24.62,66.786,6.173,79.223,65.49-10.542,65.49-10.542Z" transform="translate(-2039.585 -787.131)" fill="#f6aea6"/>
        <path id="Path_3741" data-name="Path 3741" d="M2135.881,789.88c-27.685,8.82-44.2,19.156-83.166,35.411l20.01,44.627,34.5-11.074Z" transform="translate(-2017.972 -782.606)" fill="#e3707f"/>
        <path id="Path_3742" data-name="Path 3742" d="M2102.021,811.286l20.117,46.743,45.37-8.284L2136.943,797.1l-36.191,14.184" transform="translate(-1938.895 -770.718)" fill="#e3707f"/>
        <g id="Group_9793" data-name="Group 9793" transform="translate(138.842 70.484)">
          <path id="Path_3743" data-name="Path 3743" d="M2092.6,815.717c9.664-.537,19.206-.119,28.861.008.842.013.794-1.18,0-1.276-9.515-1.138-19.341-.683-28.861.138-.72.061-.739,1.172,0,1.13Z" transform="translate(-2092.054 -813.767)" fill="#1a3066"/>
        </g>
        <g id="Group_9794" data-name="Group 9794" transform="translate(165.467 18.22)">
          <path id="Path_3744" data-name="Path 3744" d="M2119.318,794.018c-32.646,2.948-10.317,51.084-1.95,65.659a.729.729,0,0,0,1.257-.736c-8.317-14.723-30.571-59.517.8-64.127.447-.066.347-.836-.108-.8Z" transform="translate(-2102.116 -794.016)" fill="#1a3066"/>
        </g>
        <g id="Group_9795" data-name="Group 9795" transform="translate(84.472 45.437)">
          <path id="Path_3745" data-name="Path 3745" d="M2079.225,804.607a270.644,270.644,0,0,0-7.716,49.208c-.043.683,1.114.857,1.212.164,2.336-16.411,4.684-32.778,7.313-49.147.087-.524-.674-.765-.809-.225Z" transform="translate(-2071.508 -804.302)" fill="#1a3066"/>
        </g>
      </g>
      <g id="Group_9805" data-name="Group 9805" transform="translate(146.836)">
        <path id="Path_3746" data-name="Path 3746" d="M2145.9,807.9q.75-10.344,1.5-20.68c5.419-1.527,8.237-8.46,6.073-13.657s-8.3-8.113-13.874-7.319c3.517-2.392,3.247-8.11.36-11.235s-7.41-4.139-11.662-4.3-8.552.349-12.736-.426c-3.7-.688-7.338-2.384-11.077-1.913s-7.313,4.681-5.3,7.864c-5.4-.794-11.23-1.514-16.02,1.088s-7.2,10-3.081,13.575c-2.72,1.387-3.4,5.324-1.868,7.968s4.657,4.03,7.706,4.25a28.264,28.264,0,0,0,9.021-1.318" transform="translate(-2077.419 -748.286)" fill="#251a51"/>
        <path id="Path_3747" data-name="Path 3747" d="M2137.744,781.464l-1.088,14.329s12.183,1.641,8.711,12.752-11.808,6.253-11.808,6.253-2.082,28.475-31.254,19.444c-23.214-7.184-21.793-37.245-18.849-62.873a17.161,17.161,0,0,1,20.344-14.845l17.539,3.416A20.357,20.357,0,0,1,2137.744,781.464Z" transform="translate(-2070.137 -735.255)" fill="#f6aea6"/>
        <path id="Path_3748" data-name="Path 3748" d="M2128.186,775.657l-7.859,41.912a16.811,16.811,0,0,1-20.425,13.255h0a16.813,16.813,0,0,1-12.651-19.293l4.266-24.019Z" transform="translate(-2061.667 -703.23)" fill="#f6aea6"/>
        <g id="Group_9797" data-name="Group 9797" transform="translate(30.461 47.381)">
          <path id="Path_3749" data-name="Path 3749" d="M2092.724,791.712c.037-.021.111.58-.736.992-.884.423-2.326-.484-2.656-1.889a13.011,13.011,0,0,1-.354-4.721c.095-1.81.2-3.654.3-5.589.5-7.928,1.209-14.337,1.587-14.313s.286,6.47-.211,14.4c-.14,1.934-.272,3.779-.4,5.583a14.191,14.191,0,0,0,.016,4.358c.185,1.18,1.034,1.757,1.584,1.656S2092.618,791.632,2092.724,791.712Z" transform="translate(-2088.93 -766.192)" fill="#251a51"/>
        </g>
        <g id="Group_9798" data-name="Group 9798" transform="translate(24.787 96.037)">
          <path id="Path_3750" data-name="Path 3750" d="M2086.791,784.6c.138-.188,1.563.683,3.927,1.815a24.7,24.7,0,0,0,19.82.431c2.434-1.043,3.916-1.871,4.024-1.662.069.13-1.193,1.228-3.569,2.522a22.011,22.011,0,0,1-20.714-.421C2087.932,785.883,2086.7,784.713,2086.791,784.6Z" transform="translate(-2086.786 -784.579)" fill="#251a51"/>
        </g>
        <g id="Group_9799" data-name="Group 9799" transform="translate(30.468 74.965)">
          <path id="Path_3751" data-name="Path 3751" d="M2088.954,780.432c.172-.146.818.469,2.038,1.013a7.132,7.132,0,0,0,5.007.357,7.224,7.224,0,0,0,3.757-3.173c.656-1.1.85-2.069,1.064-2.011.143.034.357.913-.183,2.424a6.929,6.929,0,0,1-4.321,4.1,7.424,7.424,0,0,1-3.3.172,6.827,6.827,0,0,1-2.5-1.019C2089.235,781.419,2088.832,780.517,2088.954,780.432Z" transform="translate(-2088.933 -776.616)" fill="#251a51"/>
        </g>
        <g id="Group_9800" data-name="Group 9800" transform="translate(67.435 67.388)">
          <path id="Path_3752" data-name="Path 3752" d="M2102.9,781.046c-.009-.2.534-.341,1.2-.685a3.158,3.158,0,0,0,.482-.312c.1-.063.41-.373.325-.331a2.762,2.762,0,0,0-.487-1.053l-.326-.516-.2-.312.15-.331a17.333,17.333,0,0,0,.559-2.654c.222-.849.584-1.133.732-1.1.186.045.106.572.172,1.2a6.745,6.745,0,0,1-.214,3.107c-.014-.209-.029-.418-.045-.64l.336.516a2.477,2.477,0,0,1,.461,2.347,1.9,1.9,0,0,1-.853.733,2.958,2.958,0,0,1-.783.27C2103.451,781.454,2102.9,781.215,2102.9,781.046Z" transform="translate(-2102.903 -773.753)" fill="#251a51"/>
        </g>
        <g id="Group_9801" data-name="Group 9801" transform="translate(44.969 45.676)">
          <path id="Path_3753" data-name="Path 3753" d="M2094.421,766.313c-.13-.3,1.365-1.074,3.3-.632,2.059.656,2.715,1.9,2.561,2.17-.206.368-1.584-.49-2.913-.836C2095.86,766.668,2094.551,766.729,2094.421,766.313Z" transform="translate(-2094.413 -765.548)" fill="#251a51"/>
        </g>
        <g id="Group_9802" data-name="Group 9802" transform="translate(19.747 41.303)">
          <path id="Path_3754" data-name="Path 3754" d="M2084.893,765.036c-.159-.288,1.342-1.254,3.453-1.13,2.257.3,3.308,1.416,3.21,1.712-.13.4-1.757-.191-3.326-.339C2086.5,765.176,2085.063,765.435,2084.893,765.036Z" transform="translate(-2084.882 -763.895)" fill="#251a51"/>
        </g>
        <path id="Path_3755" data-name="Path 3755" d="M2136.908,800.573c-8.142-7.938-10.535-21.164-12.747-32.318a28.506,28.506,0,0,1-26.6,3.467,43.015,43.015,0,0,1-9.476,8.28,4.239,4.239,0,0,1-3.35.926c-1.365-.413-1.974-1.979-2.3-3.369a23.956,23.956,0,0,1,.474-13.506,16.275,16.275,0,0,1,9.063-9.719c4.554-1.762,9.677-.995,14.408.23a79.93,79.93,0,0,1,20.33,8.4c6.232,3.649,12.215,8.478,14.858,15.2s2.633,19.78-3.741,23.175" transform="translate(-2070.389 -740.035)" fill="#251a51"/>
        <g id="Group_9803" data-name="Group 9803" transform="translate(46.629 53.708)">
          <path id="Path_3756" data-name="Path 3756" d="M2095.587,772.984c-.378-.029-.617-1.035-.529-2.249s.462-2.178.841-2.151.62,1.035.532,2.249S2095.969,773.01,2095.587,772.984Z" transform="translate(-2095.04 -768.583)" fill="#251a51"/>
        </g>
        <g id="Group_9804" data-name="Group 9804" transform="translate(23.205 50.72)">
          <path id="Path_3757" data-name="Path 3757" d="M2086.738,771.852c-.381-.026-.619-1.035-.531-2.249s.465-2.178.846-2.149.617,1.032.53,2.247S2087.117,771.879,2086.738,771.852Z" transform="translate(-2086.188 -767.454)" fill="#251a51"/>
        </g>
      </g>
      <path id="Path_3758" data-name="Path 3758" d="M2042.782,811.952s3.525-21.632,7.732-21.4,12.63,0,12.63,0,.7-20.574,3.038-17.3,3.075,30.957-5.946,44.238Z" transform="translate(-1987.601 -707.774)" fill="#f6aea6"/>
      <path id="Path_3759" data-name="Path 3759" d="M2101.05,837.478s-37.737,6.6-37,11.5a35.392,35.392,0,0,0,3.387,9.833l33.614-.791Z" transform="translate(-1952.608 -601.463)" fill="#f6aea6"/>
      <g id="Group_9806" data-name="Group 9806" transform="translate(0 178.828)">
        <path id="Path_3760" data-name="Path 3760" d="M2211.335,895.577l-.289-5.225-77.731-4.755-26.069-69.73-85.318,4.69,29.108,75.405Z" transform="translate(-2021.929 -815.867)" fill="#6338a1"/>
        <path id="Path_3761" data-name="Path 3761" d="M2039.712,834.337a6.326,6.326,0,1,0,5.967-6.661A6.325,6.325,0,0,0,2039.712,834.337Z" transform="translate(-1992.671 -796.443)" fill="#fff" opacity="0.41"/>
        <path id="Path_3762" data-name="Path 3762" d="M2038.76,836.054a8.857,8.857,0,1,0,8.356-9.333A8.855,8.855,0,0,0,2038.76,836.054Z" transform="translate(-1994.245 -798.02)" fill="#fff" opacity="0.41"/>
      </g>
    </g>
    <path id="Path_3763" data-name="Path 3763" d="M2017.144,849.165,2350.806,845l19.544,10.262S2114.2,925.565,2017.144,849.165Z" transform="translate(0 200.096)" fill="#ddd2f3"/>
    <path id="Path_3764" data-name="Path 3764" d="M2115.895,754.384c-1.005,1.961,2.3,52.619,2.3,52.619l24.943-2.075-2.908,13.374,12.186-13.744,24.408-2.821-1.484-49.1Z" transform="translate(162.244 48.053)" fill="#ddd2f3"/>
    <g id="Group_9812" data-name="Group 9812" transform="translate(2197.016 723.447)">
      <path id="Path_3765" data-name="Path 3765" d="M2102.88,723.519s-17.19.86-17.762,19.2c0,0,.289,10.026,5.729,13.749S2096,764.2,2096,764.2h14.327s-.572-5.157,1.72-8.023,8.021-8.88,7.161-17.761S2111.763,722.662,2102.88,723.519Z" transform="translate(-2085.119 -723.447)" fill="#ffbb7d"/>
      <g id="Group_9808" data-name="Group 9808" transform="translate(10.023 43.353)">
        <path id="Path_3766" data-name="Path 3766" d="M2089.5,741.727c5.142-.238,10.344.328,15.454.029.736-.042.987-1.191.183-1.358-4.964-1.027-10.64-.458-15.637.1-.764.087-.8,1.265,0,1.225Z" transform="translate(-2088.907 -739.83)" fill="#6338a1"/>
      </g>
      <g id="Group_9809" data-name="Group 9809" transform="translate(12.01 47.854)">
        <path id="Path_3767" data-name="Path 3767" d="M2090.26,743.42c2.05-.119,4.109-.2,6.163-.182s4.136.36,6.165.212a.694.694,0,0,0,.183-1.358c-3.924-1.027-8.706-.434-12.675.127-.683.1-.521,1.241.165,1.2Z" transform="translate(-2089.657 -741.531)" fill="#6338a1"/>
      </g>
      <g id="Group_9810" data-name="Group 9810" transform="translate(13.708 51.756)">
        <path id="Path_3768" data-name="Path 3768" d="M2090.888,744.322c1.8.124,3.652.633,5.44.6a.785.785,0,0,0,.207-1.535,17.257,17.257,0,0,0-5.647-.286.613.613,0,0,0,0,1.225Z" transform="translate(-2090.299 -743.006)" fill="#6338a1"/>
      </g>
      <g id="Group_9811" data-name="Group 9811" transform="translate(11.333 23.853)">
        <path id="Path_3769" data-name="Path 3769" d="M2093.181,749.164c.4-5.1-1.32-10.738-2.188-15.737-.5.209-1,.418-1.5.63.72,1.183,1.913,4.6,3.752,4.475,1.9-.124,2.607-3.514,2.874-4.9h-1.64c.368,1.574.416,5.369,2.887,5.012,2.09-.3,3.5-3.411,4.146-5.115l-1.707-.471c-1.265,4.985-1.871,11.3-.606,16.322a.837.837,0,0,0,1.636-.22c-.154-5.284-.9-10.452.677-15.631.333-1.112-1.3-1.506-1.707-.471-.23.587-1.585,3.932-2.863,3.5-.322-.109-.751-3.091-.823-3.382a.857.857,0,0,0-1.64,0c-.186,1.024-.608,3.816-1.818,2.979-.7-.482-1.315-2.2-1.754-2.932a.823.823,0,0,0-1.5.63c.789,5,1,10.828,3.016,15.506.172.4.726.148.752-.2Z" transform="translate(-2089.402 -732.461)" fill="#6338a1"/>
      </g>
    </g>
    <g id="Group_9813" data-name="Group 9813" transform="translate(2160.773 749.162)">
      <path id="Path_3770" data-name="Path 3770" d="M2072.175,741.636c7.645-2.435,15.52-4.525,22.985-7.468a.511.511,0,0,0-.27-.984c-7.782,1.937-15.406,4.811-23.041,7.269-.749.241-.432,1.426.326,1.183Z" transform="translate(-2071.423 -733.165)" fill="#ffbb7d"/>
    </g>
    <g id="Group_9814" data-name="Group 9814" transform="translate(2238.03 746.869)">
      <path id="Path_3771" data-name="Path 3771" d="M2101.237,733.965c10.288,2.569,20.873,5.5,31.4,6.851,1.272.164,1.442-1.826.293-2.167-10.073-3-20.885-4.546-31.237-6.335-1.066-.185-1.543,1.379-.453,1.651Z" transform="translate(-2100.618 -732.298)" fill="#ffbb7d"/>
    </g>
    <g id="Group_9815" data-name="Group 9815" transform="translate(2089.029 905.195)">
      <path id="Path_3772" data-name="Path 3772" d="M2048.3,814.981c.341-2.268.278-4.427,1.548-6.427,2.53-3.982,6.126-2.982,9.605-1.23,3.546,1.786,6.885,2.855,10.738,1.188,6.02-2.6,8.845-11.685,3.1-15.954-1.86-1.387-3.694.9-3.443,2.646.347,2.443,1.559,5.131-.534,7.229-2.8,2.808-6.079.45-8.87-.81a11.6,11.6,0,0,0-9.333-.4c-5.356,2.167-9.241,9.431-4.988,14.334a1.306,1.306,0,0,0,2.175-.574Z" transform="translate(-2044.31 -792.131)" fill="#6e3281"/>
    </g>
    <g id="Group_9816" data-name="Group 9816" transform="translate(2170.59 920.857)">
      <path id="Path_3773" data-name="Path 3773" d="M2076.656,809.628a131.567,131.567,0,0,0,21.49-7.6c2.492-1.177.886-4.655-1.657-3.863a129.742,129.742,0,0,0-20.584,8.761c-1.308.68-.886,3.149.751,2.7Z" transform="translate(-2075.132 -798.049)" fill="#edc483"/>
    </g>
    <g id="Group_9817" data-name="Group 9817" transform="translate(2136.189 937.093)">
      <path id="Path_3774" data-name="Path 3774" d="M2062.169,807.059c1.524,5.66,3.2,11.257,4.949,16.853a1.764,1.764,0,0,0,2.85.984c4.551-3.091,9.1-6.129,13.408-9.55a1.625,1.625,0,0,0-.169-2.548c-5.046-3.464-11.865-8.576-18.269-8.613-1.627-.01-2.765,2.283-1.111,3.236,2.583,1.49,5.679,2.021,8.438,3.17a46.209,46.209,0,0,1,9.156,4.885q.092-1.393.186-2.787c-4.813,2.967-9.352,6.29-13.929,9.605l2.7.54c-1.953-5.528-3.959-11.016-6.126-16.464a1.111,1.111,0,0,0-2.083.688Z" transform="translate(-2062.132 -804.185)" fill="#ede6f5"/>
    </g>
    <g id="Group_9818" data-name="Group 9818" transform="translate(2145.079 992.484)">
      <path id="Path_3775" data-name="Path 3775" d="M2066.583,829.26a134.368,134.368,0,0,0,22.794.042,2.062,2.062,0,0,0-.257-4.115,131.967,131.967,0,0,0-22.333,1.331c-1.458.2-1.9,2.615-.2,2.741Z" transform="translate(-2065.491 -825.118)" fill="#6e3281"/>
    </g>
    <path id="Path_3776" data-name="Path 3776" d="M2120.935,771.516l5.242,18.232,7.34-1.432-.717-3.67,2.083-1.252,3.932,3.89,12.435-2.424,1.611-4.758-3.538-.788,4.569-1.527-1-5.1-3.951.349,5.422-1.482-1.23-6.319L2140.5,767.7s.817-8.835-2.914-11.7l-2.855.556a15.6,15.6,0,0,1,.876,4.485c-.093,1.709-2.575,9.6-2.575,9.6l-3.879,1.815-.924-2.572Z" transform="translate(170.856 53.586)" fill="#fff"/>
    <g id="Group_9823" data-name="Group 9823" transform="translate(2034.684 790.971)">
      <path id="Path_3777" data-name="Path 3777" d="M2023.772,748.964l4.23,50.5h93l5.15,17.768,5.427-19.487,17.722-1.028-8.171-45.233Z" transform="translate(-2023.772 -748.964)" fill="#ddd2f3"/>
      <g id="Group_9822" data-name="Group 9822" transform="translate(11.461 16.087)">
        <g id="Group_9819" data-name="Group 9819">
          <path id="Path_3778" data-name="Path 3778" d="M2028.851,757.643c32.04-1.381,63.966-1.291,95.926,1.641,1.141.106,1.144-1.7,0-1.783-31.923-2.427-63.947-3.35-95.926-1.408-.99.058-1,1.6,0,1.551Z" transform="translate(-2028.103 -755.044)" fill="#fff"/>
        </g>
        <g id="Group_9820" data-name="Group 9820" transform="translate(1.867 9.969)">
          <path id="Path_3779" data-name="Path 3779" d="M2029.558,761.409c32.042-1.381,63.965-1.289,95.925,1.643,1.141.1,1.143-1.7,0-1.786-31.923-2.424-63.949-3.35-95.925-1.408-.993.061-1,1.593,0,1.551Z" transform="translate(-2028.809 -758.811)" fill="#fff"/>
        </g>
        <g id="Group_9821" data-name="Group 9821" transform="translate(2.04 19.347)">
          <path id="Path_3780" data-name="Path 3780" d="M2029.625,763.913c21.513.733,42.783-.841,64.278,1.085,1.144.1,1.148-1.709,0-1.786-21.474-1.469-42.783-.532-64.278-.849a.776.776,0,0,0,0,1.551Z" transform="translate(-2028.875 -762.355)" fill="#fff"/>
        </g>
      </g>
    </g>
  </g>
</svg>
