<svg xmlns="http://www.w3.org/2000/svg" width="18.248" height="18.766" viewBox="0 0 19.522 21.691">
  <path id="Path_55" data-name="Path 55" d="M19.268,18.268H6.254V16.1H19.268Zm0-4.338H6.254V11.761H19.268Zm0-4.338H6.254V7.423H19.268ZM3,23.691l1.627-1.627,1.627,1.627,1.627-1.627,1.627,1.627,1.627-1.627,1.627,1.627,1.627-1.627,1.627,1.627,1.627-1.627,1.627,1.627L20.9,22.064l1.627,1.627V2L20.9,3.627,19.268,2,17.642,3.627,16.015,2,14.388,3.627,12.761,2,11.134,3.627,9.507,2,7.881,3.627,6.254,2,4.627,3.627,3,2Z" transform="translate(-3 -2)" fill="#fff"/>
</svg>
