<svg xmlns="http://www.w3.org/2000/svg" xmlns:xlink="http://www.w3.org/1999/xlink" width="35" height="36" viewBox="0 0 35 36">
  <defs>
    <radialGradient id="radial-gradient" cx="0.5" cy="0.5" r="0.5" gradientUnits="objectBoundingBox">
      <stop offset="0" stop-color="#fff"/>
      <stop offset="1" stop-color="#f2f2f2"/>
    </radialGradient>
  </defs>
  <g id="Group_1661" data-name="Group 1661" transform="translate(-0.487 0.13)">
    <ellipse id="Ellipse_91" data-name="Ellipse 91" cx="17.5" cy="18" rx="17.5" ry="18" transform="translate(0.487 -0.13)" fill="url(#radial-gradient)"/>
    <g id="Group_1660" data-name="Group 1660" transform="translate(10.478 8.721)">
      <path id="Path_1732" data-name="Path 1732" d="M274.389,132.47h-6.608a1.74,1.74,0,0,1-1.767-1.77q0-6.608,0-13.216a1.741,1.741,0,0,1,1.759-1.762h6.558a.7.7,0,1,1,0,1.4q-3.239,0-6.477,0c-.336,0-.442.1-.442.434v13.052c0,.367.1.462.465.462h13.035c.345,0,.449-.1.449-.446q0-3.213,0-6.428a.751.751,0,0,1,.274-.65.669.669,0,0,1,.738-.073.653.653,0,0,1,.387.615c0,2.235.006,4.471,0,6.705a1.737,1.737,0,0,1-1.714,1.675Q277.717,132.472,274.389,132.47Z" transform="translate(-266.013 -115.722)" fill="#aaa" fill-rule="evenodd"/>
      <path id="Path_1733" data-name="Path 1733" d="M284.593,119.693a1.355,1.355,0,0,1-.4.986q-4.027,4.065-8.053,8.133a.867.867,0,0,1-.48.2c-.681.16-1.361.331-2.041.5-.586.143-1.17.288-1.756.429a.7.7,0,0,1-.867-.893c.324-1.245.662-2.487.966-3.737a1.455,1.455,0,0,1,.424-.721q3.9-3.889,7.8-7.788a1.39,1.39,0,0,1,2.1,0q.955.952,1.907,1.907A1.352,1.352,0,0,1,284.593,119.693Zm-9.007,7.586,5.605-5.605-1.93-1.932-5.606,5.606Zm4.7-8.579,1.932,1.933.946-.927-1.942-1.942Zm-7.658,9.626,1.555-.381-1.174-1.173Z" transform="translate(-268.192 -115.988)" fill="#aaa" fill-rule="evenodd"/>
    </g>
  </g>
</svg>
