<svg xmlns="http://www.w3.org/2000/svg" width="23.749" height="23.749" viewBox="0 0 23.749 23.749">
  <path id="Path_861" data-name="Path 861" d="M397.632,163.391a2.9,2.9,0,0,1,2.9,2.9v17.947a2.906,2.906,0,0,1-2.9,2.9h-4.942v-8.95h3.091l.591-3.832h-3.682v-2.489a1.918,1.918,0,0,1,2.162-2.069h1.67v-3.262a19.912,19.912,0,0,0-2.966-.264c-3.028,0-5,1.841-5,5.159v2.925h-3.371v3.832h3.371v8.95h-8.867a2.9,2.9,0,0,1-2.9-2.9V166.29a2.9,2.9,0,0,1,2.9-2.9Z" transform="translate(-376.787 -163.391)" fill="#1777f2"/>
</svg>
