<svg id="_1_stroke" data-name="1 stroke" xmlns="http://www.w3.org/2000/svg" width="23.75" height="23.751" viewBox="0 0 23.75 23.751">
  <g id="Google">
    <rect id="Rectangle_197" data-name="Rectangle 197" width="23.75" height="23.75" fill="none"/>
    <path id="Path_856" data-name="Path 856" d="M381.7,161.76a6.9,6.9,0,0,1,.358-2.209l-4-3.054a11.907,11.907,0,0,0,0,10.516l4-3.065a6.937,6.937,0,0,1-.353-2.188" transform="translate(-376.584 -149.884)" fill="#fbbc05"/>
    <path id="Path_857" data-name="Path 857" d="M387.742,160.076a6.856,6.856,0,0,1,4.377,1.566l3.464-3.453a11.891,11.891,0,0,0-18.512,3.645l4,3.054a7.01,7.01,0,0,1,6.668-4.812" transform="translate(-375.596 -155.22)" fill="#ea4335"/>
    <path id="Path_858" data-name="Path 858" d="M387.742,162.748a7.01,7.01,0,0,1-6.668-4.812l-4,3.054a11.857,11.857,0,0,0,10.671,6.622,11.334,11.334,0,0,0,7.747-2.966l-3.8-2.935a7.339,7.339,0,0,1-3.951,1.037" transform="translate(-375.596 -143.861)" fill="#34a853"/>
    <path id="Path_859" data-name="Path 859" d="M390.48,159.257a9.915,9.915,0,0,0-.27-2.162H379.129v4.584h6.378a5.353,5.353,0,0,1-2.427,3.552l3.8,2.935a11.792,11.792,0,0,0,3.6-8.909" transform="translate(-366.983 -147.381)" fill="#4285f4"/>
  </g>
</svg>
