<svg xmlns="http://www.w3.org/2000/svg" xmlns:xlink="http://www.w3.org/1999/xlink" width="39" height="39" viewBox="0 0 39 39">
  <defs>
    <radialGradient id="radial-gradient" cx="0.5" cy="0.5" r="0.5" gradientUnits="objectBoundingBox">
      <stop offset="0" stop-color="#fff"/>
      <stop offset="1" stop-color="#f2f2f2"/>
    </radialGradient>
  </defs>
  <g id="Group_1661" data-name="Group 1661" transform="translate(-1332 -599.368)">
    <circle id="Ellipse_91" data-name="Ellipse 91" cx="19.5" cy="19.5" r="19.5" transform="translate(1332 599.368)" fill="url(#radial-gradient)"/>
    <g id="Group_1660" data-name="Group 1660" transform="translate(1343.124 608.548)">
      <path id="Path_1732" data-name="Path 1732" d="M275.183,134.058h-7.235a1.906,1.906,0,0,1-1.935-1.938q0-7.235,0-14.469a1.906,1.906,0,0,1,1.926-1.929h7.18a.768.768,0,1,1,0,1.532q-3.546,0-7.091,0c-.368,0-.484.113-.484.476V132.02c0,.4.1.506.509.506h14.271c.378,0,.492-.113.492-.488q0-3.518,0-7.037a.822.822,0,0,1,.3-.712.732.732,0,0,1,.808-.08.714.714,0,0,1,.424.674q0,3.67,0,7.341a1.9,1.9,0,0,1-1.876,1.833Q278.826,134.06,275.183,134.058Z" transform="translate(-266.013 -115.722)" fill="#aaa" fill-rule="evenodd"/>
      <path id="Path_1733" data-name="Path 1733" d="M285.885,120.012a1.483,1.483,0,0,1-.44,1.079q-4.409,4.451-8.817,8.9a.949.949,0,0,1-.526.222c-.746.175-1.49.363-2.234.546-.641.157-1.281.316-1.923.47a.763.763,0,0,1-.95-.978c.354-1.363.725-2.723,1.058-4.091a1.592,1.592,0,0,1,.464-.789q4.273-4.258,8.537-8.526a1.522,1.522,0,0,1,2.295,0q1.045,1.043,2.088,2.088A1.481,1.481,0,0,1,285.885,120.012Zm-9.861,8.305,6.137-6.137-2.113-2.115-6.137,6.137C274.61,126.9,275.322,127.614,276.024,128.317Zm5.148-9.393,2.115,2.117,1.035-1.015L282.2,117.9Zm-8.385,10.539,1.7-.417-1.285-1.285Z" transform="translate(-267.929 -115.956)" fill="#aaa" fill-rule="evenodd"/>
    </g>
  </g>
</svg>
