<svg xmlns="http://www.w3.org/2000/svg" width="100.12" height="100.116" viewBox="0 0 115.529 115.362">
  <g id="Group_9857" data-name="Group 9857" transform="translate(-1191.094 -403.211)">
    <path id="Path_3809" data-name="Path 3809" d="M1203.42,442.8h-7.6c-.89,0-1.782-.008-2.673,0a1.87,1.87,0,0,1-1.972-1.465,1.776,1.776,0,0,1,.968-2.126q11.473-7.371,22.919-14.782c10.595-6.838,21.208-13.652,31.772-20.538a3.086,3.086,0,0,1,3.884.011q27.12,17.582,54.3,35.07c.227.146.458.29.673.452a1.872,1.872,0,0,1,.816,2.228,1.807,1.807,0,0,1-1.944,1.155c-2.868-.014-5.736,0-8.6,0h-1.482v1.4q0,35.92,0,71.843c0,2.123-.388,2.517-2.474,2.517q-43.013,0-86.025,0c-2.2,0-2.557-.363-2.557-2.569q0-35.516,0-71.029Zm76.98,15.425h-62.87v56.725h1.36v-2.608q0-9.825,0-19.65c0-1.507.473-2.313,1.66-2.361,2.349-.1,4.706-.028,7.179-.028,0,1.948-.009,3.8,0,5.65.011,1.632.617,2.262,2.234,2.279,1.976.022,3.953.012,5.93,0,2.535-.011,2.877-.357,2.892-2.9.01-1.651,0-3.3,0-5.07,2.143,0,4.111-.005,6.082,0,2.272.007,2.748.485,2.748,2.722q0,10.29,0,20.58c0,.45.04.9.064,1.39h2.6v-1.439q0-10.464,0-20.929c0-1.4.505-2.21,1.647-2.253,2.35-.088,4.707-.026,7.189-.026,0,1.893-.005,3.7,0,5.514.006,1.837.58,2.407,2.449,2.416,1.938.01,3.875,0,5.814,0,2.355,0,2.791-.434,2.794-2.776,0-1.692,0-3.383,0-5.2,2.055,0,3.947,0,5.839,0,2.587-.006,3,.4,2.994,2.94q0,10.173-.007,20.347v1.382h1.4Zm-31.654-29.673c2.282,0,4.564.01,6.846-.005,1.242-.008,1.877-.592,1.9-1.683a1.687,1.687,0,0,0-1.878-1.859q-6.787-.033-13.576,0a1.871,1.871,0,0,0-2.006,1.8c-.019,1.065.726,1.741,1.988,1.749C1244.26,428.568,1246.5,428.558,1248.746,428.557Zm-.012,7.034c2.2,0,4.406.011,6.609,0,1.456-.009,2.157-.621,2.149-1.824-.007-1.175-.658-1.73-2.089-1.733q-6.607-.009-13.215,0a1.908,1.908,0,0,0-2.156,1.761c-.025,1.054.8,1.784,2.094,1.793C1244.329,435.6,1246.531,435.591,1248.734,435.591Z" fill="#866be9" fill-rule="evenodd"/>
    <path id="Path_3810" data-name="Path 3810" d="M1243.49,462.124c0,2.05-.008,3.939,0,5.827.009,1.551.541,2.117,2.074,2.135q3.37.041,6.739,0c1.594-.018,2.141-.6,2.145-2.2.007-1.857,0-3.713,0-5.772,1.431,0,2.806,0,4.182,0,.968,0,1.939-.035,2.9.033a1.633,1.633,0,0,1,1.741,1.874q.018,11.27,0,22.539c0,1.384-.67,1.935-2.294,1.938q-7.608.016-15.218.006c-2.944,0-5.887.005-8.831,0-1.841,0-2.489-.675-2.488-2.537q0-10.746,0-21.493c0-1.83.5-2.34,2.338-2.35C1238.983,462.114,1241.179,462.124,1243.49,462.124Z" fill="#866be9" fill-rule="evenodd"/>
    <path id="Path_3811" data-name="Path 3811" d="M1246.887,466.358c0-1.214-.025-2.441.025-3.665a.787.787,0,0,1,.545-.538c1.029-.055,2.065-.026,3.171-.026v4.229Z" fill="#866be9" fill-rule="evenodd"/>
    <path id="Path_3812" data-name="Path 3812" d="M1231.266,490.344h3.629v4.173h-3.629Z" fill="#866be9" fill-rule="evenodd"/>
    <path id="Path_3813" data-name="Path 3813" d="M1266.484,490.358v4.178h-3.595v-4.178Z" fill="#866be9" fill-rule="evenodd"/>
  </g>
</svg>
