<svg xmlns="http://www.w3.org/2000/svg" width="18.248" height="18.766" viewBox="0 0 26 26">
  <g id="Group_87" data-name="Group 87" transform="translate(-0.113 -0.254)">
    <path id="Path_26" data-name="Path 26" d="M14.643,3.709A4.149,4.149,0,0,0,9.158,4.5a4.141,4.141,0,0,0-5.484-.788A3.918,3.918,0,0,0,2,6.78c-.1,2.778,2.363,5,6.121,8.42l.072.064a1.429,1.429,0,0,0,1.926-.007l.079-.072c3.759-3.408,6.215-5.635,6.121-8.413A3.915,3.915,0,0,0,14.643,3.709Z" transform="translate(3.608 3.726)" fill="#fff"/>
    <g id="Ellipse_1" data-name="Ellipse 1" transform="translate(0.113 0.254)" fill="none" stroke="#fff" stroke-width="1">
      <circle cx="13" cy="13" r="13" stroke="none"/>
      <circle cx="13" cy="13" r="12.5" fill="none"/>
    </g>
  </g>
</svg>
