<svg xmlns="http://www.w3.org/2000/svg" width="132" height="132" viewBox="0 0 132 132">
  <g id="icon_upload" transform="translate(-479 -312)">
    <g id="Ellipse_39" data-name="Ellipse 39" transform="translate(479 312)" fill="none" stroke="#dddfe7" stroke-width="1">
      <circle cx="66" cy="66" r="66" stroke="none"/>
      <circle cx="66" cy="66" r="65.5" fill="none"/>
    </g>
    <g id="Ellipse_40" data-name="Ellipse 40" transform="translate(488.231 321.231)" fill="none" stroke="#dddfe7" stroke-width="3">
      <circle cx="56.769" cy="56.769" r="56.769" stroke="none"/>
      <circle cx="56.769" cy="56.769" r="55.269" fill="none"/>
    </g>
    <circle id="Ellipse_41" data-name="Ellipse 41" cx="45.692" cy="45.692" r="45.692" transform="translate(499.308 332.308)" fill="#dddfe7"/>
    <path id="Path_344" data-name="Path 344" d="M36.5,20.191,20.712.972a2.8,2.8,0,0,0-4.323,0L.6,20.191a2.8,2.8,0,0,0,2.162,4.582H10.7V49.724a2.788,2.788,0,0,0,2.8,2.8H23.6a2.788,2.788,0,0,0,2.8-2.8V24.773h7.941A2.8,2.8,0,0,0,36.5,20.191Z" transform="translate(526.122 352.111)" fill="#f0f2f8"/>
  </g>
</svg>
