<svg xmlns="http://www.w3.org/2000/svg" width="100.12" height="100.116" viewBox="0 0 122.66 127.319">
  <g id="Group_9861" data-name="Group 9861" transform="translate(-1859.548 -289.614)">
    <path id="Path_3839" data-name="Path 3839" d="M1887.956,356.672c.675-.4,1.157-.672,1.631-.962q11.9-7.293,23.793-14.591a4.446,4.446,0,0,1,3.79-.744,4.1,4.1,0,0,1,3.1,3.973c.035,3.2.015,6.4.017,9.6v1.832c.72-.405,1.2-.656,1.666-.94q11.226-6.884,22.448-13.77c2.333-1.427,4.919-1.006,6.135,1.089a5.812,5.812,0,0,1,.677,2.708c.077,3.525.031,7.053.031,10.891.677-.374,1.159-.616,1.617-.9q11.227-6.878,22.452-13.762c2.5-1.527,5.212-.972,6.379,1.377a5.733,5.733,0,0,1,.479,2.481q.04,30.808.024,61.613c0,1.768.008,3.535,0,5.3-.015,3.576-1.463,5.051-5.021,5.054q-17.266.014-34.531,0-39.045,0-78.091-.035a6.748,6.748,0,0,1-3.007-.626,3.94,3.94,0,0,1-2-3.971q.448-14.032.83-28.065c.321-11.552.6-23.1.941-34.655q.82-27.922,1.694-55.843a4.02,4.02,0,0,1,4.081-4.108c4.965-.034,9.934.009,14.9.1a4.035,4.035,0,0,1,3.928,3.506,18.274,18.274,0,0,1,.207,2.565q.765,27.064,1.521,54.13C1887.715,352.066,1887.844,354.209,1887.956,356.672Zm85.65-4.367a4.613,4.613,0,0,0-.57.216c-7,4.282-14,8.552-20.962,12.886a2.18,2.18,0,0,0-.8,1.609c-.043,13.272-.019,26.543-.061,39.813,0,1.242.317,1.631,1.6,1.617,6.49-.062,12.984-.026,19.476-.032.416,0,.83-.053,1.315-.086Zm-95.955-54.14c-1.713,0-3.238.093-4.747-.028-1.3-.1-1.6.394-1.628,1.608-.134,6.3-.349,12.6-.534,18.9q-.725,24.7-1.446,49.4-.567,19.329-1.129,38.659c-.015.51,0,1.02,0,1.616h12.708C1879.8,371.622,1878.73,335.031,1877.651,298.166Zm34.025,54.217c-.228.02-.336,0-.408.042-7.079,4.33-14.162,8.651-21.208,13.034a2.055,2.055,0,0,0-.7,1.521c-.038,13.371-.018,26.738-.05,40.108,0,1.1.363,1.365,1.405,1.358,6.54-.042,13.082-.022,19.623-.028.417,0,.836-.051,1.335-.085Zm30.974-.184c-.641.37-1.057.6-1.458.841-6.547,4.012-13.083,8.044-19.653,12.019a2.3,2.3,0,0,0-1.282,2.27c.042,13.132.026,26.265.026,39.4v1.6h22.367Z" fill="#866be9" fill-rule="evenodd"/>
    <path id="Path_3840" data-name="Path 3840" d="M1940.628,350.49v7.428h-7.612V350.49Z" transform="translate(25.705 21.299)" fill="#866be9" fill-rule="evenodd"/>
    <path id="Path_3841" data-name="Path 3841" d="M1894.781,350.473v7.447h-7.671v-7.447Z" transform="translate(9.643 21.293)" fill="#866be9" fill-rule="evenodd"/>
    <path id="Path_3842" data-name="Path 3842" d="M1918.146,350.478v7.457h-7.759v-7.457Z" transform="translate(17.787 21.295)" fill="#866be9" fill-rule="evenodd"/>
  </g>
</svg>
