<svg xmlns="http://www.w3.org/2000/svg" wwidth="100.12" height="100.116" viewBox="0 0 151.061 111.851">
  <g id="Group_9860" data-name="Group 9860" transform="translate(-1682.294 -267.797)">
    <path id="Path_3830" data-name="Path 3830" d="M1682.409,320.928V306.961c3.81-.108,7.538-.329,11.263-.3a202.282,202.282,0,0,1,43.32,5.1c17.177,3.907,33.7,9.607,49.139,18.2,10.54,5.865,20.252,12.8,27.8,22.387,4.743,6.023,8.088,12.693,8.828,20.435.214,2.239.032,4.516.032,6.854h-22.851c.89-7.4-1.04-14.07-4.965-20.232a51.279,51.279,0,0,0-10.631-11.791c-10.039-8.362-21.578-13.984-33.79-18.344a160.853,160.853,0,0,0-40.025-8.683,132.493,132.493,0,0,0-27.109.276C1683.153,320.893,1682.883,320.9,1682.409,320.928Z" fill="#866be9" fill-rule="evenodd"/>
    <path id="Path_3831" data-name="Path 3831" d="M1793.57,379.648h-25.792c-.1-1.135-.12-2.26-.3-3.359-1.126-6.9-5.277-11.871-10.525-16.048-8.288-6.6-17.877-10.471-28.045-13.044a102.68,102.68,0,0,0-28.49-3.088q-8.125.252-16.253.484c-.534.015-1.068,0-1.687,0a8.993,8.993,0,0,1-.156-1.154c-.008-4.933.022-9.867-.02-14.8-.01-1.075.293-1.506,1.428-1.616a146.332,146.332,0,0,1,82.665,15.957c7.952,4.084,15.184,9.244,20.909,16.25,4.265,5.221,7.05,11.022,6.665,17.981-.025.433-.04.868-.107,1.295A11.7,11.7,0,0,1,1793.57,379.648Z" fill="#866be9" fill-rule="evenodd"/>
    <path id="Path_3832" data-name="Path 3832" d="M1682.315,379.608V363.421c0-3.525.053-7.05-.02-10.573-.025-1.182.34-1.625,1.52-1.694,10.275-.6,20.54-1.664,30.837-.368,13.374,1.684,26.107,5.187,37.2,13.235,3.724,2.7,7.012,5.867,8.71,10.272a38.3,38.3,0,0,1,1.224,5.315Z" fill="#866be9" fill-rule="evenodd"/>
    <path id="Path_3833" data-name="Path 3833" d="M1833.355,306.79v13.048c-.513.061-.974.156-1.437.164a160.054,160.054,0,0,0-35.655,4.68,2.981,2.981,0,0,1-1.836-.139c-6.564-3.061-13.1-6.177-19.643-9.284a5.432,5.432,0,0,1-.66-.484A203.566,203.566,0,0,1,1833.355,306.79Z" fill="#866be9" fill-rule="evenodd"/>
    <path id="Path_3834" data-name="Path 3834" d="M1833.32,361.5c-7.589-12.986-17.193-23.989-30.513-31.971a150.317,150.317,0,0,1,30.513-3.419Z" fill="#866be9" fill-rule="evenodd"/>
    <path id="Path_3835" data-name="Path 3835" d="M1701.868,303.124l-1.513-.2a7.083,7.083,0,0,1-.06-1.033c.165-1.75.039-3.036-2.115-3.786-2.218-.772-3.168-2.982-2.989-5.3a103.753,103.753,0,0,1,3.471-21.247,12.111,12.111,0,0,1,1.018-2.549c.292-.517.927-1.268,1.3-1.21a2.416,2.416,0,0,1,1.467,1.259,13.483,13.483,0,0,1,1.332,3.638c1.112,6.656,2.194,13.319,3.118,20a5.282,5.282,0,0,1-3.577,5.758c-1.22.423-1.621.994-1.468,2.2A21.84,21.84,0,0,1,1701.868,303.124Z" fill="#866be9" fill-rule="evenodd"/>
    <path id="Path_3836" data-name="Path 3836" d="M1738.829,308.132c-1.315.254-1.625-.273-1.546-1.292.064-.8.014-1.617.014-2.379-4.223-2.03-5.019-3.467-4.27-8.141.848-5.275,1.779-10.538,2.755-15.791a10.5,10.5,0,0,1,1.171-3c.707-1.31,1.672-1.345,2.2.037a40.646,40.646,0,0,1,2.172,7.263c.8,4.517,1.416,9.077,1.873,13.643.293,2.929-.8,4.321-3.466,5.56a1.863,1.863,0,0,0-.86,1.259A20.3,20.3,0,0,0,1738.829,308.132Z" fill="#866be9" fill-rule="evenodd"/>
    <path id="Path_3837" data-name="Path 3837" d="M1813.086,304.72l-1.439.117a6.109,6.109,0,0,1-.06-1.2c.186-1.2-.27-1.772-1.458-2.22a4.581,4.581,0,0,1-3.011-4.915,91.4,91.4,0,0,1,3.2-19.165,2.894,2.894,0,0,1,.341-.907c.551-.739,1.157-1.438,1.741-2.153.57.739,1.467,1.4,1.655,2.227,1.1,4.841,2.073,9.711,3,14.589a49.311,49.311,0,0,1,.513,5.005c.206,2.428-.823,4.508-2.922,5.279a1.892,1.892,0,0,0-1.49,2.361A5.35,5.35,0,0,1,1813.086,304.72Z" fill="#866be9" fill-rule="evenodd"/>
    <path id="Path_3838" data-name="Path 3838" d="M1750.874,311.745c-.2-.414-.6-.854-.552-1.238.162-1.3-.433-1.874-1.555-2.4a3.241,3.241,0,0,1-1.906-3.481c.774-5.058,1.663-10.1,2.587-15.132a11.672,11.672,0,0,1,1.32-2.548,10.42,10.42,0,0,1,1.446,2.519c.952,5.029,1.863,10.068,2.638,15.127a3.134,3.134,0,0,1-1.877,3.486c-1.466.557-1.651,1.464-1.535,2.734a3.506,3.506,0,0,1-.1.778Z" fill="#866be9" fill-rule="evenodd"/>
  </g>
</svg>
