<svg id="Group_9779" data-name="Group 9779" xmlns="http://www.w3.org/2000/svg" xmlns:xlink="http://www.w3.org/1999/xlink" width="40.283" height="96.007" viewBox="0 0 64.283 96.007">
  <defs>
    <linearGradient id="linear-gradient" y1="0.5" x2="1" y2="0.5" gradientUnits="objectBoundingBox">
      <stop offset="0.463" stop-color="#d17530"/>
      <stop offset="1" stop-color="#e8b932"/>
    </linearGradient>
    <linearGradient id="linear-gradient-2" y1="0.5" x2="1" y2="0.5" gradientUnits="objectBoundingBox">
      <stop offset="0.483" stop-color="#463079"/>
      <stop offset="1" stop-color="#7f5e9e"/>
    </linearGradient>
    <clipPath id="clip-path">
      <path id="Path_3667" data-name="Path 3667" d="M746.924,605.558c0,.269.013.54.013.812a28.946,28.946,0,0,1,57.868,0c0-.272.011-.543.011-.812a28.946,28.946,0,1,0-57.892,0" transform="translate(-746.924 -576.603)" fill="#302157"/>
    </clipPath>
  </defs>
  <path id="Path_3663" data-name="Path 3663" d="M798.1,603.976a24.4,24.4,0,1,1-24.4-24.4A24.4,24.4,0,0,1,798.1,603.976Z" transform="translate(-743.523 -571.016)" fill="#fff"/>
  <path id="Path_3664" data-name="Path 3664" d="M778.27,574.834c-17.645,0-31.944,13.629-31.944,30.437A31.115,31.115,0,0,0,752.531,624c6.714,9.151,19.394,34.1,23.849,46.842,0,0,13.734-23.331,22.315-36.954,6.884-10.927,8.743-14.952,10-18.826a32.549,32.549,0,0,0,1.509-9.976C810.2,588.276,795.9,574.834,778.27,574.834Zm.655,53.923c-13.342,0-24.156-10.517-24.156-23.486s10.813-23.488,24.156-23.488c13.324,0,24.143,10.51,24.143,23.488S792.249,628.757,778.925,628.757Z" transform="translate(-745.922 -574.834)" fill="url(#linear-gradient)"/>
  <path id="Path_3665" data-name="Path 3665" d="M776.539,575.781A30.435,30.435,0,0,0,746.1,606.22a32.149,32.149,0,0,0,5.911,18.728c6.4,9.151,20.3,32.384,24.547,45.131,0,0,11.263-21.621,19.437-35.243,6.561-10.927,8.33-14.954,9.528-18.826a33.956,33.956,0,0,0,1.439-9.976A30.279,30.279,0,0,0,776.539,575.781Zm0,53.923a23.487,23.487,0,1,1,23.486-23.484A23.489,23.489,0,0,1,776.539,629.7Z" transform="translate(-746.102 -574.072)" fill="url(#linear-gradient-2)"/>
  <g id="Group_9774" data-name="Group 9774" transform="translate(1.484 3.193)">
    <g id="Group_9773" data-name="Group 9773">
      <path id="Path_3666" data-name="Path 3666" d="M746.924,605.558c0,.269.013.54.013.812a28.946,28.946,0,0,1,57.868,0c0-.272.011-.543.011-.812a28.946,28.946,0,1,0-57.892,0" transform="translate(-746.924 -576.603)" fill="#302157"/>
      <g id="Group_9772" data-name="Group 9772" clip-path="url(#clip-path)">
        <rect id="Rectangle_3587" data-name="Rectangle 3587" width="57.892" height="29.768" transform="translate(0 -0.001)" fill="#302157"/>
      </g>
    </g>
  </g>
  <path id="Path_3668" data-name="Path 3668" d="M772.762,580.48a21.955,21.955,0,1,0,21.952,21.957A21.958,21.958,0,0,0,772.762,580.48Zm9.786,31.778a1.911,1.911,0,0,1-1.911,1.911H765.089a1.9,1.9,0,0,1-1.91-1.911V601.751l9.68-7.463,9.689,7.689Zm3.722-11.073a2.01,2.01,0,0,1-2.827.278l-10.523-8.637-10.328,8.3a2.006,2.006,0,1,1-2.509-3.13l11.595-9.319a2.02,2.02,0,0,1,2.534.013l2.89,2.373v-.074a1.915,1.915,0,0,1,1.915-1.915h1.437a1.914,1.914,0,0,1,1.911,1.915v4.166c0,.076,0,.148-.009.226l3.637,2.984A2.01,2.01,0,0,1,786.27,601.185Z" transform="translate(-742.325 -570.289)" fill="url(#linear-gradient)"/>
  <g id="Group_9778" data-name="Group 9778" transform="translate(22.392 31.397)">
    <g id="Group_9777" data-name="Group 9777">
      <g id="Group_9775" data-name="Group 9775" transform="translate(6.722)">
        <path id="Path_3669" data-name="Path 3669" d="M767.391,597.064v2.245h2.052v1.022a5.022,5.022,0,0,1-1.072.552,2.948,2.948,0,0,1-.98.164,2.065,2.065,0,0,1-1.693-.751,4.087,4.087,0,0,1-.6-2.512,3.939,3.939,0,0,1,.6-2.413,1.939,1.939,0,0,1,1.608-.765,1.821,1.821,0,0,1,1.112.323,1.7,1.7,0,0,1,.625.935l2.958-.574a4.53,4.53,0,0,0-.809-1.731,3.207,3.207,0,0,0-1.355-1,7.023,7.023,0,0,0-2.462-.327,6.946,6.946,0,0,0-2.128.283v1.928a10.739,10.739,0,0,0-1.751,2.234,13.505,13.505,0,0,0-1.258,2.96,5.458,5.458,0,0,0,.41,1.168,4.347,4.347,0,0,0,1.713,1.957,5.709,5.709,0,0,0,2.884.653,7.4,7.4,0,0,0,2.482-.366,9.189,9.189,0,0,0,2.408-1.372v-4.61Z" transform="translate(-762.232 -592.229)" fill="#463079"/>
      </g>
      <g id="Group_9776" data-name="Group 9776" transform="translate(0 0.184)">
        <path id="Path_3670" data-name="Path 3670" d="M766.3,592.331h-7.788v2.536h4.747a16.87,16.87,0,0,0-2.142,3.841,18.634,18.634,0,0,0-.984,4.44h2.657a17.933,17.933,0,0,1,.513-3.3c.025-.1.056-.191.085-.291l0-.027a13.876,13.876,0,0,1,1.209-2.937,10.918,10.918,0,0,1,1.7-2.238v-1.917l.011,0Z" transform="translate(-758.508 -592.331)" fill="#463079"/>
      </g>
    </g>
  </g>
</svg>
