<svg id="Group_62" data-name="Group 62" xmlns="http://www.w3.org/2000/svg" width="17.248" height="17.766" viewBox="0 0 20.248 23.766">
  <path id="Path_28" data-name="Path 28" d="M12.356,23.356A2.345,2.345,0,0,0,14.7,21.01H10.01A2.345,2.345,0,0,0,12.356,23.356Z" transform="translate(-2.088 0.41)" fill="#fff"/>
  <path id="Path_29" data-name="Path 29" d="M23.312,21.3l-1.521-1.521V12.7a8.246,8.246,0,0,0-6.485-8.053V3.269a1.769,1.769,0,1,0-3.537,0v1.38A8.246,8.246,0,0,0,5.284,12.7v7.075L3.763,21.3a1.179,1.179,0,0,0,.825,2.016H22.475A1.18,1.18,0,0,0,23.312,21.3Z" transform="translate(-3.414 -1.5)" fill="#fff"/>
</svg>
