<svg xmlns="http://www.w3.org/2000/svg" width="100.12" height="100.116" viewBox="0 0 120 120">
  <g id="Group_9862" data-name="Group 9862" transform="translate(-1168.512 -222.929)">
    <rect id="Rectangle_3604" data-name="Rectangle 3604" width="3.871" height="3.871" transform="translate(1284.64 339.058)" fill="#866be9"/>
    <rect id="Rectangle_3605" data-name="Rectangle 3605" width="3.871" height="3.871" transform="translate(1168.512 339.058)" fill="#866be9"/>
    <path id="Path_3807" data-name="Path 3807" d="M1245,222.929a27.1,27.1,0,0,0-24.445,15.484h-14.264V253.9h3.871v7.742h-27.1a3.875,3.875,0,0,0-3.871,3.871v3.871a3.875,3.875,0,0,0,3.871,3.871v65.806H1179.2v3.871h104.516v-3.871h-3.871V253.9h3.871V238.413H1269.45A27.1,27.1,0,0,0,1245,222.929Zm23.226,27.1a23.19,23.19,0,0,1-9.728,18.862,5.794,5.794,0,0,0-5.756-5.315,3.871,3.871,0,1,1,0-7.742,8.153,8.153,0,0,0,7.334-4.533l.408-.816a4.305,4.305,0,0,1,3.871-2.392,7.568,7.568,0,0,1,3.827,1.064C1268.2,249.445,1268.23,249.731,1268.23,250.026Zm-6.008-15.533c-.132.008-.263.049-.4.049a9.588,9.588,0,0,0-8.944,6.056,5.73,5.73,0,0,1-5.348,3.621h-7.592a2.681,2.681,0,0,1-1-5.169l1.7-.68a9.961,9.961,0,0,0,6.3-9.3,5.845,5.845,0,0,1,.422-2.152A23.148,23.148,0,0,1,1262.222,234.493Zm-18.881-7.608a9.7,9.7,0,0,0-.273,2.186,6.109,6.109,0,0,1-3.861,5.7l-1.7.68a6.552,6.552,0,0,0,2.432,12.635h7.592a9.589,9.589,0,0,0,8.944-6.056,5.729,5.729,0,0,1,5.347-3.622,9.864,9.864,0,0,0,2.97-.478,23.008,23.008,0,0,1,2.794,6.776,11.374,11.374,0,0,0-3.233-.492,8.153,8.153,0,0,0-7.333,4.533l-.408.817a4.3,4.3,0,0,1-3.871,2.392,7.742,7.742,0,0,0,0,15.484,1.936,1.936,0,0,1,1.936,1.935,10.329,10.329,0,0,0,.145,1.66,22.87,22.87,0,0,1-17.6.844c.12-.166.261-.331.373-.5a20.952,20.952,0,0,0,3.529-11.652V257.68a5.725,5.725,0,0,0-5.72-5.719,5.9,5.9,0,0,1-5.894-5.894,9.855,9.855,0,0,0-1.029-4.369l-.652-1.3a17.19,17.19,0,0,0-2.168-3.217A23.211,23.211,0,0,1,1243.342,226.885Zm-19.7,14.034a13.536,13.536,0,0,1,.734,1.208l.65,1.3a5.914,5.914,0,0,1,.623,2.638,9.775,9.775,0,0,0,9.765,9.764,1.852,1.852,0,0,1,1.849,1.848v2.055a17.1,17.1,0,0,1-2.881,9.508,11.114,11.114,0,0,1-.758,1.008,23.189,23.189,0,0,1-9.981-29.332Zm-13.477,1.364h8.884a26.942,26.942,0,0,0-1.142,7.742h-7.742Zm0,46.452h-15.484v-7.742h15.484Zm-15.484,3.871h15.484v7.742h-15.484Zm0,11.613h15.484v7.742h-15.484Zm0,11.613h15.484v7.742h-15.484Zm-11.613-50.323h27.1v3.871h-27.1Zm3.872,7.742h23.225v3.872h-19.354v50.322h19.354v11.613H1186.94Zm73.547,65.806H1246.94V308.091h13.548Zm-17.419,0H1229.52V308.091h13.548Zm32.9,0h-11.613V304.219h-38.71v34.839h-11.613V253.9h4.181a27.06,27.06,0,0,0,53.574,0h4.179Zm3.872-96.774v7.742H1272.1a26.917,26.917,0,0,0-1.143-7.742Z" transform="translate(-2.944)" fill="#866be9"/>
    <path id="Path_3808" data-name="Path 3808" d="M1235.3,303.075V322.43h50.323V303.075Zm46.451,7.742h-7.742v-3.871h7.742Zm-23.226,3.871v3.871h-7.741v-3.871Zm-7.741-3.871v-3.871h7.741v3.871Zm11.613,3.871h7.742v3.871H1262.4Zm0-3.871v-3.871h7.742v3.871Zm-15.484-3.871v3.871h-7.742v-3.871Zm-7.742,7.742h7.742v3.871h-7.742Zm34.839,3.871v-3.871h7.742v3.871Z" transform="translate(-18.402 -22.082)" fill="#866be9"/>
    <rect id="Rectangle_3606" data-name="Rectangle 3606" width="3.871" height="3.871" transform="translate(1247.867 319.703)" fill="#866be9"/>
    <rect id="Rectangle_3607" data-name="Rectangle 3607" width="3.871" height="3.871" transform="translate(1232.383 319.703)" fill="#866be9"/>
  </g>
</svg>
