<svg xmlns="http://www.w3.org/2000/svg" width="100.12" height="100.116" viewBox="0 0 114.279 114.28">
  <g id="Group_9858" data-name="Group 9858" transform="translate(-1366.717 -253.864)">
    <path id="Path_3814" data-name="Path 3814" d="M1399.592,368.13h26.664V331.941h-26.664Zm3.809-32.38h19.046v28.571H1403.4Z" transform="translate(-2.4 -5.7)" fill="#866be9"/>
    <path id="Path_3815" data-name="Path 3815" d="M1450.808,320.768a1.9,1.9,0,0,0,1.346-.558l7.619-7.619a1.9,1.9,0,1,0-2.693-2.693l-7.619,7.619a1.9,1.9,0,0,0,1.347,3.251Z" transform="translate(-6 -4.05)" fill="#866be9"/>
    <path id="Path_3816" data-name="Path 3816" d="M1450.808,331.341a1.9,1.9,0,0,0,1.346-.558l3.81-3.809a1.9,1.9,0,0,0-2.694-2.693l-3.809,3.809a1.9,1.9,0,0,0,1.347,3.251Z" transform="translate(-6 -5.1)" fill="#866be9"/>
    <path id="Path_3817" data-name="Path 3817" d="M1457.674,320.167a1.951,1.951,0,0,0-.553,1.352,1.905,1.905,0,1,0,.553-1.352Z" transform="translate(-6.6 -4.802)" fill="#866be9"/>
    <path id="Path_3818" data-name="Path 3818" d="M1461.789,318.3a1.9,1.9,0,0,0,2.693,0l5.714-5.714a1.9,1.9,0,0,0-2.693-2.693l-5.714,5.714A1.9,1.9,0,0,0,1461.789,318.3Z" transform="translate(-6.9 -4.05)" fill="#866be9"/>
    <path id="Path_3819" data-name="Path 3819" d="M1466.6,320.171l-17.142,17.142a1.9,1.9,0,0,0,2.693,2.694l17.142-17.142a1.9,1.9,0,0,0-2.693-2.694Z" transform="translate(-6 -4.8)" fill="#866be9"/>
    <path id="Path_3820" data-name="Path 3820" d="M1472.057,318.762a2,2,0,0,0,1.352.552,1.969,1.969,0,0,0,1.352-.552,2,2,0,0,0,.552-1.352,1.958,1.958,0,0,0-.552-1.352,1.992,1.992,0,0,0-2.7,0,1.952,1.952,0,0,0-.553,1.352A1.992,1.992,0,0,0,1472.057,318.762Z" transform="translate(-7.65 -4.502)" fill="#866be9"/>
    <path id="Path_3821" data-name="Path 3821" d="M1480.824,276.166a2.485,2.485,0,0,0-.084-.617l-.278.081a.063.063,0,0,0-.012-.016l.285-.083a29.4,29.4,0,0,0-24.5-21.4v-.267h-34.284v0h-26.669a29.447,29.447,0,0,0-28.3,21.639,2.451,2.451,0,0,0-.086.644,2.2,2.2,0,0,0-.184.876v91.119H1481V277.025A2.2,2.2,0,0,0,1480.824,276.166ZM1454.2,257.75a25.591,25.591,0,0,1,22.33,17.065h-24.489a27.38,27.38,0,0,0-12.688-17.142h13.03Zm-5.581,22.779a11.37,11.37,0,0,1-.893,4.429l-.134.278c-.031.069-.065.134-.1.2a11.345,11.345,0,0,1-1.777,2.673l-.017.019a11.5,11.5,0,0,1-6.724,3.672c-.1.015-.2.032-.3.045a11.034,11.034,0,0,1-1.488.109,11.286,11.286,0,0,1-1.5-.111c-.1-.013-.208-.031-.314-.047a11.807,11.807,0,0,1-1.419-.314l-.061-.016-.163-.049a11.445,11.445,0,0,1-7.971-10.891v-1.9h22.856Zm18.656,15.161.108-.011c.165-.017.325-.051.49-.074.295-.042.592-.078.883-.135.067-.013.134-.031.2-.044.184-.04.363-.094.544-.139.231-.059.464-.11.69-.179.095-.029.186-.061.281-.092.185-.061.362-.132.546-.2.153-.056.309-.1.459-.162v52.537h-36.186V295.646c.036,0,.072,0,.108.006a15.507,15.507,0,0,0,1.8.115c.1,0,.19-.014.286-.016.063,0,.124-.007.187-.009.48-.015.954-.047,1.422-.107.18-.023.357-.054.534-.082.47-.077.931-.173,1.387-.292.158-.04.315-.076.472-.121a15.036,15.036,0,0,0,1.71-.61c.086-.036.164-.082.249-.12a15.241,15.241,0,0,0,1.373-.709c.154-.089.3-.181.453-.275.4-.254.793-.524,1.17-.814.1-.08.214-.154.317-.238a15.529,15.529,0,0,0,1.319-1.2c.093-.1.178-.2.271-.3q.481-.52.916-1.081c.108-.141.214-.282.318-.425.271-.378.521-.768.757-1.17.012-.021.029-.038.04-.059h.3c.016.025.032.045.048.07q.35.6.75,1.157.143.2.293.395l.07.09c.277.354.566.693.871,1.022.091.1.177.2.271.3a15.184,15.184,0,0,0,1.316,1.2c.1.081.2.151.307.229l.018.014q.563.431,1.166.809c.15.093.3.186.453.275a15.131,15.131,0,0,0,1.374.709c.083.038.162.083.247.12a15.038,15.038,0,0,0,1.71.61c.1.03.208.059.312.087.052.016.11.02.163.034q.68.178,1.385.29c.131.02.259.053.392.072.057.007.116.007.175.015a14.61,14.61,0,0,0,1.859.13h1.9C1466.267,295.767,1466.772,295.74,1467.273,295.69Zm-47.226-3.277v26.21H1401v-26.21l.011.008c.054.043.108.079.162.121.138.109.285.211.428.314q.414.3.847.572c.145.091.287.181.436.266.09.052.176.108.266.159.224.124.457.233.687.347.17.084.337.172.511.248.059.026.117.057.177.083.184.081.376.143.566.215s.385.147.58.214.375.125.565.181c.1.03.2.059.307.087.165.046.335.083.5.122.223.053.445.1.671.146.171.032.337.058.509.086.134.02.268.038.4.055.156.02.311.044.469.059.467.042.944.069,1.425.069s.956-.027,1.429-.072c.157-.016.312-.04.468-.059.134-.018.268-.034.4-.056.17-.026.339-.053.509-.085.226-.042.449-.094.672-.146.167-.04.337-.076.5-.122.1-.028.2-.057.308-.087.19-.056.376-.119.563-.182s.389-.138.581-.213.381-.135.565-.215c.059-.026.118-.057.177-.083.173-.076.341-.166.511-.249.231-.112.464-.222.686-.345.089-.05.177-.109.264-.16.147-.085.291-.175.435-.266q.434-.273.847-.572c.143-.1.289-.206.428-.314.053-.042.111-.078.161-.12Zm-20.95-13.788h22.855v1.9a11.366,11.366,0,0,1-1.947,6.373l-.024.035c-.062.089-.133.172-.2.26-.208.287-.426.565-.659.83-.076.088-.157.174-.235.258q-.336.363-.7.7c-.074.067-.145.135-.22.2a11.543,11.543,0,0,1-2.145,1.463c-.032.017-.065.031-.1.047-.348.177-.7.336-1.062.478-.087.034-.174.064-.262.095-.316.115-.636.214-.96.3-.106.029-.214.057-.323.084-.319.074-.645.133-.972.179-.108.015-.212.036-.321.049a10.537,10.537,0,0,1-2.6,0c-.108-.011-.213-.034-.319-.049-.328-.048-.653-.1-.973-.179-.109-.025-.216-.056-.324-.084q-.488-.128-.959-.3c-.088-.032-.175-.062-.26-.095a10.909,10.909,0,0,1-1.063-.478c-.032-.017-.067-.031-.1-.047a11.542,11.542,0,0,1-2.145-1.463c-.076-.065-.146-.134-.22-.2q-.366-.332-.7-.7c-.081-.086-.159-.17-.235-.258-.233-.264-.451-.542-.659-.83-.063-.088-.133-.172-.2-.26l-.024-.035a11.365,11.365,0,0,1-1.946-6.373Zm26.664-20.949a23.6,23.6,0,0,1,22.365,17.139h-22.365Zm-3.809,17.139h-22.365a23.6,23.6,0,0,1,22.365-17.139Zm-26.621-17.142h13.03a27.378,27.378,0,0,0-12.687,17.142h-24.485A25.664,25.664,0,0,1,1395.331,257.673Zm-24.8,20.952h24.761v1.9a11.447,11.447,0,0,1-7.971,10.891l-.163.049c-.02.006-.041.01-.062.016a11.293,11.293,0,0,1-1.418.314c-.1.017-.208.034-.314.047a11.3,11.3,0,0,1-1.5.111h-1.9a11.331,11.331,0,0,1-1.551-.119c-.123-.017-.245-.036-.367-.057a10.973,10.973,0,0,1-1.5-.349l-.019-.007a11.306,11.306,0,0,1-1.439-.578c-.088-.042-.176-.082-.261-.125a11.411,11.411,0,0,1-6.293-10.194Zm5.714,16.03c.15.06.307.1.459.162.184.066.362.136.547.2.094.031.185.063.28.092.228.069.459.12.69.179.181.045.36.1.545.139.066.015.131.031.2.044.291.059.589.1.883.135.165.023.324.057.489.074.036,0,.071.01.108.012a14.979,14.979,0,0,0,1.516.078h1.9a15.463,15.463,0,0,0,1.779-.112c.042-.007.084,0,.126-.008v51.546h-9.524Zm-5.714,62.061h5.714v7.618h-5.714Zm13.333,0v7.618h-3.809v-7.618Zm3.809,7.618v-7.618h3.81v7.618Zm83.8-7.618v7.618h-3.81v-7.618Zm-7.619,7.618h-3.809v-7.618h3.809Zm-7.618,0h-3.809v-7.618h3.809Zm-7.619,0h-3.809v-7.618h3.809Zm-7.618,0h-3.81v-7.618H1441Zm-7.619,0h-3.809v-7.618h3.809Zm43.807,0h-1.9v-7.618h1.9Zm0-73.737v62.31h-51.426v11.427h-30.474V352.907h-24.761V290.6c.1.109.206.206.3.311.195.208.391.413.6.612.164.158.334.309.505.459s.327.29.5.426V351h17.142V294.645c.1-.039.19-.073.284-.113s.163-.082.248-.12a15.381,15.381,0,0,0,1.374-.709c.154-.089.3-.181.452-.275.4-.254.793-.524,1.17-.814.1-.08.215-.154.319-.237a15.628,15.628,0,0,0,1.317-1.2c.093-.1.179-.2.27-.3.323-.347.627-.706.917-1.08.108-.14.215-.281.318-.426a14.911,14.911,0,0,0,.832-1.293c.036-.063.082-.12.119-.183v34.533h26.664V287.9c.037.063.083.121.119.183.256.446.535.876.832,1.293.1.146.209.286.318.426.289.376.594.735.916,1.08.093.1.177.2.271.3a15.23,15.23,0,0,0,1.318,1.2c.1.083.213.158.318.238.377.289.766.56,1.169.813.15.093.3.186.454.275a15.209,15.209,0,0,0,1.373.709c.083.038.164.083.249.12s.19.074.283.112V351h43.807V292.4c.172-.136.333-.282.5-.426s.34-.3.5-.459c.206-.2.4-.4.6-.612C1476.981,290.8,1477.092,290.707,1477.187,290.6Zm-4.928-.679a11.529,11.529,0,0,1-1.363.807c-.086.044-.174.083-.262.126a11.2,11.2,0,0,1-1.439.577l-.02.007a11.14,11.14,0,0,1-1.5.349c-.122.02-.246.04-.368.057a11.66,11.66,0,0,1-1.552.117h-1.9a11.055,11.055,0,0,1-1.488-.109c-.1-.013-.2-.031-.3-.045a11.517,11.517,0,0,1-6.724-3.672l-.017-.019a11.345,11.345,0,0,1-1.777-2.673c-.032-.069-.068-.134-.1-.2l-.133-.278a11.353,11.353,0,0,1-.894-4.429v-1.9h24.76v1.9A11.42,11.42,0,0,1,1472.259,289.918Z" fill="#866be9"/>
    <rect id="Rectangle_3608" data-name="Rectangle 3608" width="3.809" height="51.426" transform="translate(1391.478 297.672)" fill="#866be9"/>
    <rect id="Rectangle_3609" data-name="Rectangle 3609" width="3.809" height="51.426" transform="translate(1425.761 297.672)" fill="#866be9"/>
  </g>
</svg>
