<svg xmlns="http://www.w3.org/2000/svg" width="100.12" height="100.116" viewBox="0 0 127.062 127.032">
  <g id="Group_9859" data-name="Group 9859" transform="translate(-1530.892 -253.864)">
    <path id="Path_3822" data-name="Path 3822" d="M1550.738,301.493c-3.634,0-7.182.032-10.726-.022a7.9,7.9,0,0,1-2.648-.49,2.016,2.016,0,0,1-1.216-3.008,10.687,10.687,0,0,1,1.833-2.61q5.957-6.32,12.009-12.546a2.673,2.673,0,0,0,.811-2.07c-.029-6.2-.02-12.406-.015-18.608a7.894,7.894,0,0,1,8.231-8.275q35.48,0,70.96,0a7.883,7.883,0,0,1,8.134,8.122c.01,6.327-.014,12.654.035,18.98a2.756,2.756,0,0,0,.694,1.706c4.29,4.591,8.629,9.136,12.952,13.7a4.891,4.891,0,0,1,.534.682c1.338,2.06.7,3.676-1.7,4.223a9.013,9.013,0,0,1-1.959.209c-3.467.02-6.933.009-10.555.009v1.4q0,21.585.028,43.17a3.772,3.772,0,0,0,.66,2.021c5.876,8.438,11.814,16.833,17.676,25.281a8.59,8.59,0,0,1,1.427,3.359c.371,2.254-1.366,3.92-4.035,4.147-.411.035-.826.017-1.24.017q-58.18,0-116.363,0c-1.965,0-3.9-.183-4.924-2.149-1.039-2-.108-3.768,1.066-5.388q8.867-12.243,17.745-24.477a3.065,3.065,0,0,0,.606-1.667q.048-22.517.023-45.032C1550.782,302.016,1550.762,301.853,1550.738,301.493Zm43.725,75.437q28.894,0,57.789-.016a5.441,5.441,0,0,0,1.347-.356,6.94,6.94,0,0,0-.538-1.18c-5.416-7.745-10.86-15.474-16.258-23.233a2.134,2.134,0,0,0-2-1.051q-40.055.043-80.11,0a2.184,2.184,0,0,0-2,1.069c-3.666,5.092-7.37,10.16-11.06,15.236-1.991,2.738-3.988,5.471-5.963,8.221a3.872,3.872,0,0,0-.356.977c.331.112.66.24,1,.329a2.034,2.034,0,0,0,.494.006Q1565.633,376.928,1594.463,376.93ZM1562.694,347.1V345.04q0-15.568,0-31.135c0-2.863,1.584-4.461,4.425-4.462q9.426,0,18.855,0c2.928,0,4.5,1.584,4.5,4.511q0,15.877,0,31.755v1.374h43.593V301.589h-79.259V347.1Zm-7.948-65.523h79.363c.016-.277.041-.477.041-.678,0-6.282.015-12.565,0-18.847a3.992,3.992,0,0,0-4.286-4.222q-35.4,0-70.8,0a4.03,4.03,0,0,0-4.31,4.326c-.013,1.653,0,3.306,0,4.96Zm31.706,31.9H1566.74v33.583h19.712Zm22.97-16.006c-.026-.135-.016-.23-.059-.274-3.462-3.713-6.921-7.432-10.416-11.116a1.814,1.814,0,0,0-1.181-.443c-2.106-.045-4.213.019-6.318-.043a2.29,2.29,0,0,0-1.91.848c-3.222,3.489-6.474,6.948-9.714,10.419-.149.161-.269.348-.469.609Zm-24.516-11.853c-4.552,0-8.79-.014-13.027.028a1.725,1.725,0,0,0-.985.614c-1.574,1.637-3.121,3.3-4.671,4.958-1.9,2.033-3.793,4.073-5.877,6.313,4.53,0,8.767.009,13-.02a1.336,1.336,0,0,0,.809-.449C1577.671,293.339,1581.168,289.6,1584.906,285.617Zm43.666,11.915c-3.709-3.958-7.166-7.674-10.67-11.347a2.12,2.12,0,0,0-1.38-.547c-3.838-.043-7.678-.026-11.518-.019a6.686,6.686,0,0,0-.877.129c3.237,3.463,6.414,6.767,9.467,10.181a4.293,4.293,0,0,0,3.69,1.644C1620.939,297.444,1624.6,297.532,1628.572,297.532Zm-87.174,0h1.448c3.842,0,7.682.017,11.524-.028a1.852,1.852,0,0,0,1.107-.621c1.608-1.662,3.181-3.358,4.759-5.049,1.871-2,3.737-4.011,5.791-6.218-2.8,0-5.31,0-7.818,0-1.775,0-3.765-.483-5.268.161-1.545.662-2.634,2.414-3.89,3.721C1546.566,292.082,1544.1,294.688,1541.4,297.532Zm81.64-11.918a3.042,3.042,0,0,0,.265.455c3.408,3.653,6.808,7.315,10.256,10.932a2.124,2.124,0,0,0,1.4.509c3.8.039,7.6.023,11.4.016.292,0,.584-.059,1.055-.11-3.746-3.914-7.336-7.679-10.952-11.419a1.5,1.5,0,0,0-.977-.367C1631.394,285.606,1627.307,285.614,1623.038,285.614Z" fill="#866be9" fill-rule="evenodd"/>
    <path id="Path_3823" data-name="Path 3823" d="M1594.514,366.012h24.674c.166,0,.331,0,.5,0,1.679.007,2.57.711,2.547,2.013-.022,1.253-.9,1.944-2.493,1.946q-5.457.006-10.911,0-19.837,0-39.678-.027a2.7,2.7,0,0,1-1.877-.636,2.605,2.605,0,0,1-.426-2.007c.218-1,1.111-1.3,2.125-1.3,6.406.016,12.812.006,19.219.006Z" fill="#866be9" fill-rule="evenodd"/>
    <path id="Path_3824" data-name="Path 3824" d="M1594.447,358.072q9.552,0,19.1,0c1.51,0,2.39.814,2.318,2.1-.063,1.167-.9,1.853-2.316,1.855q-8.435.01-16.87.005-10.668,0-21.333-.005c-1.618,0-2.525-.952-2.284-2.344.183-1.059.941-1.612,2.283-1.613Q1584.9,358.065,1594.447,358.072Z" fill="#866be9" fill-rule="evenodd"/>
    <path id="Path_3825" data-name="Path 3825" d="M1612.348,315.4c3.224,0,6.451-.009,9.675,0a3.979,3.979,0,0,1,4.177,4.214q.014,8.682,0,17.367a3.987,3.987,0,0,1-4.185,4.211q-9.739.012-19.477,0a3.961,3.961,0,0,1-4.113-4.153q-.018-8.745,0-17.491a3.961,3.961,0,0,1,4.12-4.145C1605.815,315.385,1609.081,315.4,1612.348,315.4Zm9.831,21.78V319.432h-19.71v17.746Z" fill="#866be9" fill-rule="evenodd"/>
    <path id="Path_3826" data-name="Path 3826" d="M1596.373,269.7c0-5.021,3.41-7.8,8.187-6.669a5.92,5.92,0,0,1,4.5,5.692,10.464,10.464,0,0,1-.081,2.594c-.687,3.781-3.278,5.719-7.06,5.356C1598.456,276.338,1596.375,273.721,1596.373,269.7Zm10.152.084-.119-.03c-.022-.453-.009-.912-.074-1.358a3.626,3.626,0,0,0-3.215-3.385,3.236,3.236,0,0,0-3.785,2.753,11.7,11.7,0,0,0,.2,4.475,3.057,3.057,0,0,0,3.182,2.252,3.2,3.2,0,0,0,3.232-2.212A17.788,17.788,0,0,0,1606.525,269.781Z" fill="#866be9" fill-rule="evenodd"/>
    <path id="Path_3827" data-name="Path 3827" d="M1582.815,268.226h5.7c0-.9-.005-1.785,0-2.673a3.446,3.446,0,0,1,.079-1.465,2.417,2.417,0,0,1,1.263-1.231c.824-.186,1.268.523,1.321,1.289.073,1.069.034,2.148.035,3.222q0,3.72,0,7.44c0,.937-.2,1.833-1.343,1.845-1.17.014-1.33-.921-1.345-1.838-.02-1.394,0-2.79,0-4.254h-5.705c0,1.453-.007,2.883,0,4.315.006.9-.143,1.741-1.239,1.78-1.21.044-1.332-.876-1.334-1.8q-.008-5.146,0-10.291c0-.882.128-1.754,1.262-1.748,1.182.008,1.323.89,1.314,1.832C1582.807,265.8,1582.815,266.946,1582.815,268.226Z" fill="#866be9" fill-rule="evenodd"/>
    <path id="Path_3828" data-name="Path 3828" d="M1569.887,276.671c-2.566.016-4.293-1.033-5.03-3.022-.3-.822-.332-1.591.581-2,.958-.425,1.419.3,1.63,1.02a2.813,2.813,0,0,0,4.179,1.665,2.319,2.319,0,0,0,1.052-1.71,2.372,2.372,0,0,0-1.253-1.568,29.152,29.152,0,0,0-3.17-.992c-2.094-.738-3.01-1.888-2.937-3.627a3.412,3.412,0,0,1,.245-1.2c.8-1.858,2.428-2.354,4.233-2.432,1.938-.084,3.741.3,4.763,2.192.64,1.182.046,2.465-.995,2.232-.453-.1-.883-.645-1.169-1.087-.841-1.3-1.979-1.836-3.358-1.248a2.17,2.17,0,0,0-1.176,1.354c-.062.392.518,1.106.977,1.318a26.116,26.116,0,0,0,3.163,1.02q3.731,1.173,3.425,4.178c-.217,2.171-1.931,3.687-4.417,3.9C1570.385,276.689,1570.136,276.671,1569.887,276.671Z" fill="#866be9" fill-rule="evenodd"/>
    <path id="Path_3829" data-name="Path 3829" d="M1616.93,271.214c0,1.412.039,2.607-.012,3.8-.037.873-.289,1.724-1.4,1.643-.979-.07-1.227-.814-1.226-1.686q.009-5.135,0-10.267c0-1.125.52-1.679,1.65-1.671,1.279.011,2.556,0,3.833.013,2.845.027,4.393,1.371,4.445,3.847.054,2.634-1.478,4.184-4.311,4.315C1618.971,271.251,1618.029,271.214,1616.93,271.214Zm.076-2.119c2.505.286,3.956,0,4.27-1.029a2.724,2.724,0,0,0-.156-2.175c-1.089-1.288-2.668-.758-4.114-.845Z" fill="#866be9" fill-rule="evenodd"/>
  </g>
</svg>
