<svg xmlns="http://www.w3.org/2000/svg" width="35.517" height="39.463" viewBox="0 0 35.517 39.463">
  <path id="Path_55" data-name="Path 55" d="M32.6,31.6H8.919V27.651H32.6Zm0-7.893H8.919V19.758H32.6Zm0-7.893H8.919V11.866H32.6ZM3,41.463,5.96,38.5l2.96,2.96,2.96-2.96,2.96,2.96L17.8,38.5l2.96,2.96,2.96-2.96,2.96,2.96,2.96-2.96,2.96,2.96,2.96-2.96,2.96,2.96V2l-2.96,2.96L32.6,2l-2.96,2.96L26.678,2l-2.96,2.96L20.758,2,17.8,4.96,14.839,2l-2.96,2.96L8.919,2,5.96,4.96,3,2Z" transform="translate(-3 -2)" fill="#fff"/>
</svg>
