<svg xmlns="http://www.w3.org/2000/svg" width="100.12" height="100.116" viewBox="0 0 112.152 119.117">
  <g id="Group_9846" data-name="Group 9846" transform="translate(-1519.622 -17.406)">
    <path id="Path_3800" data-name="Path 3800" d="M1607.363,86.74h7.443c0-1.339.006-2.641-.01-3.942a.609.609,0,0,0-.224-.388c-2.886-2.408-3.314-5.777-3.48-9.187a14.6,14.6,0,0,1,1.373-7.378,8.067,8.067,0,0,1,1.878-2.474,3.614,3.614,0,0,1,5.22.482,11.04,11.04,0,0,1,2.577,6.621,16.354,16.354,0,0,1-.9,8.379,25.264,25.264,0,0,1-2.19,3.375,2.474,2.474,0,0,0-.46,1.093c-.062,1.082-.022,2.17-.022,3.447.521,0,.965,0,1.41,0,1.681.018,2.316.635,2.342,2.335.027,1.867-.016,3.737.058,5.6a2.931,2.931,0,0,0,.537,1.558,6.2,6.2,0,0,1,1.312,3.785c.015,3.618.033,7.237.022,10.855a18.977,18.977,0,0,1-.224,2c.689,0,1.372-.009,2.053,0a5.6,5.6,0,0,1,5.657,5.626q.075,5.6.014,11.2a5.185,5.185,0,0,1-5.48,5.337h-94.079a4.617,4.617,0,0,1-4.955-4.448c-.158-4.2-.051-8.4-.041-12.6a7.038,7.038,0,0,1,.209-1.148c-.784,0-1.514.016-2.245,0a5.482,5.482,0,0,1-5.473-5.4q-.094-5.718-.039-11.438a5.552,5.552,0,0,1,5.683-5.576c1.161-.016,2.322,0,3.608,0,0-1.562,0-3.03,0-4.5,0-2.544.37-2.926,2.859-2.977.229-.005.457-.025.839-.047,0-1.309.009-2.575-.012-3.84a.729.729,0,0,0-.243-.5c-2.086-1.632-2.787-3.967-3.211-6.411a17.356,17.356,0,0,1,.611-8.866,10.357,10.357,0,0,1,1.8-3.22,3.734,3.734,0,0,1,5.9.046,10.929,10.929,0,0,1,2.423,6.083,16.638,16.638,0,0,1-.818,8.728,23.231,23.231,0,0,1-2.238,3.475c-.162.246-.416.5-.427.763-.045,1.234-.02,2.471-.02,3.708h7.458c0-.526,0-.983,0-1.441q-.042-17.623-.084-35.249c0-.194-.01-.39,0-.584a1.865,1.865,0,0,1,1.954-1.88,1.8,1.8,0,0,1,1.765,1.923c.031,2.918.02,5.836.028,8.755q.041,13.538.082,27.078c0,.424,0,.848,0,1.363h5.518c.024-.4.073-.8.071-1.211q-.031-14.824-.072-29.647c-.005-2.15.524-2.675,2.68-2.682q8.579-.024,17.159-.041c2.032,0,2.566.524,2.573,2.531q.046,14.824.087,29.647c0,.42,0,.839,0,1.321h28.006c0-.633,0-1.161,0-1.689q-.042-17.216-.088-34.433c0-.271,0-.544,0-.816.019-1.359.727-2.239,1.823-2.27,1.16-.032,1.91.852,1.915,2.282q.047,17.566.088,35.132C1607.364,85.537,1607.363,86.077,1607.363,86.74Zm-74.606,7.522h85.768V90.7h-85.768Zm31.782,18.7h14.787V98.194h-14.787Zm7.509,3.849v14.805h14.812V116.814Zm-31.759-18.6v14.823h12.879V98.213Zm70.826,33.384V116.758h-12.892V131.6Zm-50.4-14.68H1547.8V131.7h12.909Zm42.9-4V98.1h-12.916v14.81ZM1556.978,57.1V86.866h5.42V57.1Zm9.349-.008V86.829h5.441V57.1Zm-37.415,41.116c-1.326,0-2.564-.065-3.793.019a1.7,1.7,0,0,0-1.728,1.826q-.022,5.646.025,11.293a1.621,1.621,0,0,0,1.546,1.739c1.3.107,2.614.027,3.951.027Zm7.5,33.594V116.872c-1.294,0-2.494-.037-3.693.01a1.755,1.755,0,0,0-1.819,1.86q-.031,5.592.018,11.184a1.763,1.763,0,0,0,1.818,1.868C1533.934,131.841,1535.136,131.806,1536.412,131.806Zm86.057-.224c1.3,0,2.495.032,3.693-.01a1.778,1.778,0,0,0,1.844-1.855q.042-5.542-.015-11.086a1.817,1.817,0,0,0-1.756-1.962c-1.231-.064-2.469-.015-3.766-.015Zm-7.517-18.671c1.3,0,2.456.027,3.615-.007a1.79,1.79,0,0,0,1.926-1.891c.034-3.687.016-7.377-.017-11.064a1.769,1.769,0,0,0-1.661-1.922c-1.259-.114-2.536-.027-3.864-.027Zm-31.7-14.993v15.13l3.563-.167V97.713Zm-50.438.307V113.06h3.553V98.225Zm27.849,14.806V98.253h-3.583v14.778Zm54.331,18.493h3.587V116.737h-3.587Zm-71.1.223v-14.8H1540.3v14.8Zm24.273-.054V116.873h-3.576v14.819Zm39.327-18.842h3.574V98.08h-3.574Zm-16.766,18.72h3.612V116.8h-3.612Zm26-52.3c2.411-2.189,2.382-11.008-.048-12.946C1614.375,67.756,1614.024,76.995,1616.726,79.273ZM1534.487,66.49c-2.517,2.072-2.416,11.256.07,12.949C1536.886,77.559,1536.995,68.7,1534.487,66.49Z" transform="translate(0 1.445)" fill="#866be9" fill-rule="evenodd"/>
    <path id="Path_3801" data-name="Path 3801" d="M1533.924,52.936c1.294,0,2.419-.016,3.543,0a1.837,1.837,0,0,1,2.058,1.871,1.859,1.859,0,0,1-2.089,1.853q-2.567.036-5.134.006a1.89,1.89,0,0,1-2.1-2.093c-.032-1.71-.1-3.429.029-5.13a2.73,2.73,0,0,1,.942-1.839q21.174-14.9,42.408-29.712a2.18,2.18,0,0,1,2.78.021q21.18,14.685,42.381,29.34a2.25,2.25,0,0,1,1.1,2.034c-.028,1.711.014,3.423-.007,5.135a1.817,1.817,0,0,1-2.011,2.031q-2.625.041-5.252.01a1.86,1.86,0,0,1-2.058-1.764,1.939,1.939,0,0,1,2.018-1.958c.581-.029,1.165-.013,1.749-.015.543,0,1.087,0,1.615,0,.571-1.988.35-2.65-1.2-3.722q-19.226-13.308-38.435-26.641a1.9,1.9,0,0,0-2.609.009q-19.506,13.72-39.065,27.368a1.992,1.992,0,0,0-.639,1.2A11.942,11.942,0,0,0,1533.924,52.936Z" transform="translate(0.504 0)" fill="#866be9" fill-rule="evenodd"/>
    <path id="Path_3802" data-name="Path 3802" d="M1595.108,67.921q0,6.237,0,12.475c0,1.866-.559,2.421-2.434,2.431q-5.014.027-10.027.034c-1.853,0-2.468-.6-2.475-2.424q-.046-12.59-.067-25.182c0-1.571.69-2.262,2.287-2.275q5.188-.039,10.377-.029c1.624.005,2.27.66,2.274,2.262.01,4.235,0,8.472,0,12.709Zm-11.179,3.613h7.31V56.774h-7.31Zm7.335,7.51V75.459h-7.293v3.585Z" transform="translate(2.895 1.701)" fill="#866be9" fill-rule="evenodd"/>
    <path id="Path_3803" data-name="Path 3803" d="M1573.389,29.854a9.331,9.331,0,1,1-9.349,9.334A9.319,9.319,0,0,1,1573.389,29.854Zm-5.615,9.34a5.6,5.6,0,1,0,5.637-5.6A5.614,5.614,0,0,0,1567.775,39.194Z" transform="translate(2.126 0.596)" fill="#866be9" fill-rule="evenodd"/>
  </g>
</svg>
